<svg width="104" height="79" viewBox="0 0 104 79" fill="none" xmlns="http://www.w3.org/2000/svg">
<path d="M0.64518 10.3988C1.03548 15.7008 1.13469 20.9913 0.944456 26.305C2.28673 26.1213 3.629 25.9385 4.97127 25.7549C4.53014 22.8011 4.2456 19.8366 4.17098 16.8497C4.11523 14.6131 3.45353 10.512 5.31319 8.98344C7.72304 7.00405 12.8387 6.84356 15.7299 6.55488C21.1539 6.01226 33.6853 4.32156 37.4129 9.665C38.9872 11.9215 38.5182 15.2773 38.519 17.9333C38.519 19.1319 38.446 20.3544 38.5198 21.5522C38.3222 22.2403 38.3886 22.8705 38.7207 23.4429C39.1184 23.964 38.9371 24.1146 38.1787 23.8946C36.6093 24.792 31.8806 23.9657 30.0111 23.9773C28.6073 23.9856 27.2044 23.9815 25.8006 23.9699C18.5743 23.9079 11.348 23.6696 4.12094 23.7201C1.48396 23.7383 1.47822 27.8741 4.12094 27.8559C14.2367 27.7848 24.3484 28.1702 34.4659 28.0676C36.5322 28.0469 40.1827 28.7757 41.8013 26.9435C43.2575 25.295 42.6196 22.0691 42.6188 20.1046C42.6171 14.8472 43.5363 8.89159 38.8453 5.33151C31.8953 0.0567274 19.3598 1.68128 11.4218 2.97413C8.12642 3.51096 2.76395 4.26704 0.888705 7.56823C-0.292853 9.64935 0.0424893 13.0034 0.048229 15.2657C0.0580685 19.1574 0.442653 23.0095 1.01662 26.8542C1.37248 29.2397 4.96303 28.5342 5.04339 26.3042C5.23362 20.9913 5.13441 15.6999 4.74411 10.3978C4.5506 7.76087 0.44921 7.73945 0.64518 10.3988Z" fill="white"/>
<path d="M37.2081 29.2448C37.19 33.168 37.6008 37.0416 38.4076 40.8796C38.9546 43.4819 42.9076 42.3809 42.3607 39.7804C41.6285 36.2964 41.2906 32.8057 41.307 29.2456C41.3201 26.583 37.2204 26.5797 37.2081 29.2448Z" fill="white"/>
<path d="M38.5131 44.011C41.916 44.0763 45.3188 44.1408 48.7216 44.2062C51.3611 44.2566 51.3611 40.1208 48.7216 40.0704C45.3188 40.005 41.916 39.9406 38.5131 39.8752C35.8745 39.8248 35.8745 43.9605 38.5131 44.011Z" fill="white"/>
<path d="M48.8876 41.3312C49.7412 36.9837 53.29 37.4187 56.924 37.1193C61.292 36.7595 65.0793 36.7247 69.0536 38.9374C73.1813 41.2352 76.1963 45.0807 77.8165 49.5184C78.8735 52.4109 81.403 61.6412 77.7821 63.6222C75.4624 64.8911 77.5295 68.4636 79.8517 67.1931C84.8099 64.4809 83.7563 56.8205 82.8134 52.1636C81.4875 45.6142 77.7911 39.6066 72.1613 35.9902C66.5405 32.3797 60.7811 32.6138 54.41 33.1548C49.5444 33.5675 45.9653 34.9844 44.9346 40.231C44.4238 42.8308 48.3752 43.9434 48.8876 41.3312Z" fill="white"/>
<path d="M0.76894 28.0751C1.43064 33.8818 2.09234 39.6876 2.75322 45.4942C3.08366 48.3975 3.41489 51.3009 3.74534 54.2042C3.99952 56.4351 3.88391 59.2102 4.62925 61.3509C5.70422 64.4395 8.42569 64.5337 11.2472 64.7479C15.8947 65.1011 20.543 65.4477 25.1905 65.7918C44.5842 67.2261 63.981 68.605 83.3713 70.084C86.0026 70.285 85.9903 66.1484 83.3713 65.9482C66.4482 64.657 49.5203 63.4435 32.5939 62.2011C28.5983 61.9075 24.6018 61.6131 20.6061 61.3161C18.4997 61.159 16.3924 61.0018 14.2859 60.843C13.4725 60.7818 12.6591 60.7197 11.8465 60.6585C10.0049 60.5187 9.87779 60.8429 8.88073 59.3201C7.56798 57.3176 7.75413 53.3986 7.48519 51.0378C7.2146 48.6623 6.94403 46.2875 6.67344 43.9119C6.07241 38.633 5.47055 33.3549 4.86952 28.076C4.57106 25.4621 0.468015 25.4316 0.76894 28.0751Z" fill="white"/>
<path d="M6.35287 62.5114C2.99351 68.5671 7.72793 74.1669 13.5685 75.4895C20.9571 77.1628 28.859 77.4027 36.3821 77.9966C47.9534 78.9098 59.5967 79.4368 71.186 78.5269C75.5416 78.1853 81.9988 78.3217 85.9773 76.4275C89.2817 74.8543 87.7951 70.4042 87.477 67.5521C87.1851 64.9375 83.082 64.9069 83.3772 67.5521C83.4592 68.2866 84.3627 72.094 83.9396 72.5936C83.3796 73.2554 80.2416 73.3654 79.2675 73.5068C74.7626 74.1603 70.2177 74.5317 65.6718 74.7203C57.4911 75.0594 49.2973 74.7641 41.133 74.2099C34.9653 73.7913 28.7943 73.281 22.6438 72.6565C19.0515 72.2918 5.95025 71.7069 9.89424 64.5975C11.1832 62.274 7.64349 60.1863 6.35287 62.5114Z" fill="white"/>
<path d="M31.716 4.36884C35.979 4.31425 40.2419 4.27454 44.5057 4.25716C47.3288 4.24641 50.138 3.40433 51.4114 7.1406C51.9066 8.59475 51.5098 10.8446 51.5418 12.3873C51.6074 15.533 53.2776 23.2933 49.8444 24.7268C48.3857 25.3356 45.6348 24.946 44.0555 24.9758C42.1237 25.0113 40.1936 24.989 38.2617 24.9419C35.6223 24.8782 35.6239 29.0139 38.2617 29.0776C41.6383 29.1587 45.0256 29.1654 48.3989 28.9511C50.3676 28.8262 52.7356 28.8328 54.3108 27.4134C55.612 26.2405 55.7481 24.7583 55.8654 23.1131C56.1343 19.3363 55.7047 15.356 55.626 11.5626C55.5448 7.63778 56.0007 2.31999 51.5377 0.624317C48.9302 -0.36579 45.6036 0.114789 42.9084 0.128851C39.1776 0.148703 35.4476 0.185078 31.7177 0.233053C29.0799 0.266967 29.0725 4.40275 31.716 4.36884Z" fill="white"/>
<path d="M50.3955 25.9404C50.8866 29.1258 51.3786 32.3112 51.8698 35.4958C52.2748 38.1178 56.2254 37.0045 55.8228 34.3965C55.3316 31.2111 54.8397 28.0257 54.3485 24.8412C53.9443 22.2191 49.9929 23.3324 50.3955 25.9404Z" fill="white"/>
<path d="M74.8945 38.3617C78.2768 33.4939 83.5336 33.5461 88.4845 35.8787C93.8913 38.4263 97.1949 43.1816 98.6053 48.9494C99.2932 51.7617 99.5096 54.6535 99.5178 57.5428C99.5285 61.3824 98.1083 63.5669 94.4726 64.4884C90.4852 65.4992 86.6765 64.064 82.73 63.4138C80.1488 62.9887 79.0386 66.9731 81.6403 67.4016C88.0196 68.4529 93.8421 70.3397 99.9778 66.9045C106.099 63.4776 103.845 52.0215 102.19 46.4845C100.015 39.2022 95.0081 33.6999 87.8646 31.173C81.3665 28.8743 75.3168 30.5724 71.3548 36.2749C69.837 38.4586 73.3899 40.5272 74.8945 38.3617Z" fill="white"/>
<path d="M97.7229 62.9756C98.3289 66.3272 99.1554 71.2397 95.4254 73.0354C92.0579 74.6567 87.0315 73.315 83.636 72.4903C81.072 71.8674 79.9782 75.8544 82.5463 76.478C87.5448 77.6923 94.717 79.2846 99.107 75.6037C103.125 72.2355 102.513 66.505 101.677 61.8754C101.204 59.2616 97.2523 60.3692 97.7229 62.9756Z" fill="white"/>
</svg>
