<svg width="141" height="52" viewBox="0 0 141 52" fill="none" xmlns="http://www.w3.org/2000/svg">
<path d="M66.5233 15.5203C52.2996 14.9347 38.0759 14.3492 23.8522 13.7644C20.2959 13.6184 16.7404 13.4716 13.1841 13.3256C10.8058 13.228 7.74281 12.5511 5.48439 13.6046C1.37942 15.5203 0.667066 23.1062 0.232133 26.9161C-0.251211 31.1479 -0.456388 35.8192 4.64985 36.6921C11.0593 37.7879 18.3863 37.0802 24.8842 37.1901C39.2285 37.4321 53.5744 37.5289 67.921 37.4944C70.3931 37.4882 70.3977 33.646 67.921 33.6522C56.3431 33.6799 44.7659 33.6238 33.1894 33.4731C27.6529 33.4009 22.1163 33.3072 16.5805 33.1927C13.6221 33.1312 10.4515 33.3702 7.52225 32.9867C5.92775 32.7777 4.45545 33.0113 3.85376 31.2216C3.41115 29.9038 3.96672 27.8044 4.15192 26.4589C4.47005 24.1452 4.89037 19.7682 6.42262 17.8886C7.90724 16.0682 11.9139 17.1155 13.9464 17.1985C19.788 17.4391 25.6304 17.6796 31.472 17.9201C43.156 18.4011 54.84 18.8822 66.5233 19.3624C68.9961 19.4646 68.9915 15.6217 66.5233 15.5203Z" fill="white"/>
<path d="M68.4634 17.5042C71.9844 10.387 79.1154 6.82611 86.4793 4.82665C88.863 4.17963 87.851 0.471956 85.4581 1.12205C77.1836 3.36818 69.0928 7.58686 65.1461 15.5655C64.0526 17.774 67.3653 19.7235 68.4634 17.5042Z" fill="white"/>
<path d="M85.4965 1.85289C86.1212 17.7479 85.0008 33.8089 84.5882 49.7062C84.5244 52.1798 88.3666 52.1783 88.4303 49.7062C88.843 33.8097 89.9634 17.7479 89.3386 1.85289C89.2418 -0.611477 85.3989 -0.623772 85.4965 1.85289Z" fill="white"/>
<path d="M65.7279 37.1784C70.0857 44.3733 77.2245 49.2697 85.5619 50.5438C87.981 50.9134 89.0237 47.2119 86.5832 46.8392C79.1955 45.7103 72.9297 41.653 69.0453 35.2397C67.7658 33.1273 64.4423 35.056 65.7279 37.1784Z" fill="white"/>
<path d="M87.0882 4.29341C90.3602 4.3057 93.5184 4.66149 96.7105 5.39765C96.2402 4.77983 95.7699 4.16277 95.3004 3.54495C96.0036 12.2966 96.7074 21.0644 96.6744 29.8515C96.659 33.9841 96.4807 38.1175 96.062 42.2294C95.9644 43.1884 96.1104 46.0454 95.4887 46.787C94.9139 47.4732 94.7794 47.2618 93.8181 47.4132C91.6066 47.7629 89.1707 47.6069 86.9307 47.6353C84.4602 47.6668 84.4532 51.509 86.9307 51.4775C89.9229 51.439 95.9805 52.4265 98.2643 49.9383C99.2594 48.854 99.2886 47.215 99.4722 45.851C99.8618 42.9594 100.138 40.0547 100.305 37.1416C100.948 25.934 100.039 14.711 99.1418 3.54418C99.0757 2.7235 98.5947 1.89053 97.7318 1.69151C94.207 0.878504 90.7067 0.463553 87.0882 0.449721C84.6161 0.441268 84.6123 4.28342 87.0882 4.29341Z" fill="white"/>
<path d="M107.37 15.136C114.637 12.3873 122.049 10.1419 129.619 8.39683C132.028 7.84125 131.009 4.13588 128.598 4.69223C121.028 6.43734 113.616 8.68269 106.349 11.4314C104.058 12.2974 105.051 16.0128 107.37 15.136Z" fill="white"/>
<path d="M116.54 29.6172C124.091 28.9533 131.612 28.971 139.16 29.6703C141.621 29.8985 141.605 26.0548 139.16 25.8281C131.612 25.1288 124.091 25.1111 116.54 25.7751C114.096 25.9902 114.074 29.8339 116.54 29.6172Z" fill="white"/>
<path d="M109.29 40.174C116.118 42.9457 122.947 45.7175 129.776 48.4892C132.066 49.419 133.063 45.7036 130.797 44.7846C123.968 42.0129 117.14 39.2411 110.311 36.4694C108.021 35.5396 107.024 39.255 109.29 40.174Z" fill="white"/>
</svg>
