<svg width="139" height="77" viewBox="0 0 139 77" fill="none" xmlns="http://www.w3.org/2000/svg">
<path d="M23.1693 72.4533C39.4818 48.4195 56.9918 25.2258 75.6452 2.95952C77.035 1.30031 74.6528 -1.10624 73.2515 0.565834C54.414 23.0521 36.7205 46.4733 20.2469 70.7447C19.0203 72.5522 21.9515 74.2473 23.1693 72.4533Z" fill="white"/>
<path d="M72.6769 2.94054C86.0399 27.3006 100.692 50.9276 116.574 73.726C117.81 75.5009 120.746 73.8106 119.496 72.0173C103.614 49.219 88.9623 25.592 75.5993 1.23192C74.5514 -0.677757 71.6276 1.02815 72.6769 2.94054Z" fill="white"/>
<path d="M72.8081 3.71439C89.5336 27.5221 108.888 49.37 130.547 68.8012C132.164 70.252 134.566 67.8664 132.94 66.4075C111.499 47.1713 92.2901 25.5779 75.7305 2.00575C74.4883 0.236874 71.5524 1.92656 72.8081 3.71439Z" fill="white"/>
<path d="M133.788 74.6277C133.611 71.0927 133.433 67.557 133.255 64.0219C132.691 64.5858 132.127 65.1504 131.563 65.7143C132.578 65.801 133.659 66.0074 134.676 65.9797C134.964 66.0061 135.253 66.0325 135.541 66.0589C135.413 65.9065 135.285 65.7542 135.158 65.6012C134.732 66.1739 134.468 66.949 134.145 67.582C132.996 69.8268 131.847 72.0709 130.698 74.3156C129.708 76.251 132.627 77.9658 133.621 76.0243C134.702 73.9115 135.783 71.7994 136.865 69.6866C137.509 68.4275 138.651 66.9118 138.646 65.4449C138.637 62.0452 133.795 62.5198 131.563 62.3295C130.682 62.2544 129.828 63.1663 129.87 64.0219C130.048 67.557 130.226 71.0927 130.403 74.6277C130.512 76.7953 133.898 76.8082 133.788 74.6277Z" fill="white"/>
<path d="M8.24325 74.6277C8.42061 71.0927 8.59865 67.557 8.77601 64.0219C8.81934 63.1629 7.96367 62.2544 7.08363 62.3296C4.85579 62.5191 0.0101649 62.0351 1.05986e-05 65.4449C-0.00405111 66.88 1.16031 68.4722 1.78175 69.6867C2.86284 71.7994 3.94461 73.9115 5.0257 76.0243C6.01811 77.9637 8.93984 76.2531 7.9481 74.3157C6.79931 72.0709 5.65053 69.8268 4.50174 67.582C4.31761 67.2219 4.01569 66.2207 3.69075 65.9979C3.60546 65.5315 3.47413 65.476 3.29609 65.8308C2.97657 66.1036 3.05645 66.1665 3.53708 66.0196C4.31354 66.3134 6.25437 65.7854 7.08296 65.715C6.51906 65.1511 5.95448 64.5865 5.39058 64.0226C5.21322 67.5576 5.03518 71.0934 4.85782 74.6284C4.74883 76.8048 8.13426 76.7987 8.24325 74.6277Z" fill="white"/>
<path d="M71.4684 1.69224C61.0623 13.1672 50.3103 24.318 39.4453 35.357C28.9985 45.9716 18.9431 57.5611 6.22927 65.5267C4.38728 66.6803 6.0844 69.6101 7.93789 68.4491C20.5624 60.5396 30.5427 49.2163 40.9203 38.6829C52.0975 27.3386 63.1629 15.8832 73.8621 4.08526C75.3223 2.47547 72.9354 0.0743227 71.4684 1.69224Z" fill="white"/>
<path d="M72.26 1.82624C72.346 8.568 72.1903 15.3003 71.7936 22.0305C71.6656 24.2063 75.0504 24.1988 75.1783 22.0305C75.575 15.2996 75.7307 8.568 75.6448 1.82624C75.617 -0.350164 72.2322 -0.356257 72.26 1.82624Z" fill="white"/>
<path d="M72.155 13.6635C63.1008 33.9186 52.1883 53.2706 39.5415 71.4995C38.2966 73.2934 41.2298 74.9872 42.4639 73.2081C55.1114 54.9792 66.0232 35.6272 75.0774 15.3721C75.9595 13.3995 73.0432 11.676 72.155 13.6635Z" fill="white"/>
<path d="M71.6702 15.1752C72.8129 34.5664 69.7605 54.0186 72.7316 73.3219C73.062 75.4678 76.3242 74.5567 75.9952 72.4222C73.0749 53.4473 76.1787 34.2428 75.0549 15.1752C74.927 13.0103 71.5416 12.9954 71.6702 15.1752Z" fill="white"/>
<path d="M71.4508 14.97C66.2309 25.7789 58.3999 35.284 50.6271 44.3504C48.6795 46.6223 46.6534 48.8359 44.4371 50.8498C42.7989 52.3384 40.7098 53.6131 39.7126 55.6582C38.8035 57.5225 38.9497 59.9657 38.8915 61.9728C38.7886 65.558 38.8339 69.1411 38.9788 72.7242C39.0668 74.8945 42.4516 74.906 42.3636 72.7242C42.237 69.5892 42.1842 66.4542 42.2438 63.3166C42.3128 59.6908 42.1293 57.3296 45.0233 54.8134C49.1216 51.2492 52.6614 47.2566 56.0888 43.0513C62.8583 34.7458 69.6867 26.3814 74.3732 16.678C75.3162 14.7257 72.3986 13.0069 71.4508 14.97Z" fill="white"/>
<path d="M19.0007 74.4049C36.2853 75.5117 53.6275 75.5848 70.9405 75.8549C88.0254 76.1216 105.127 76.0945 122.063 73.5526C124.21 73.2304 123.298 69.9681 121.164 70.289C104.11 72.8486 86.836 72.7274 69.638 72.4498C52.7583 72.1777 35.8541 72.0999 19.0014 71.0201C16.8257 70.8807 16.8338 74.2661 19.0007 74.4049Z" fill="white"/>
</svg>
