<svg width="95" height="117" viewBox="0 0 95 117" fill="none" xmlns="http://www.w3.org/2000/svg">
<path d="M38.4052 7.9667C34.3771 5.978 28.8097 6.63027 25.2717 9.41708C21.0596 12.7353 20.3247 18.9681 19.8778 23.9327C19.5366 27.726 19.392 31.5757 19.5854 35.3816C19.71 37.8392 19.9729 40.5421 21.643 42.4957C23.4013 44.5527 26.0505 45.0159 28.5656 45.5429C32.6989 46.4087 36.8384 47.2506 40.9898 48.0281C48.4244 49.4208 55.916 50.5883 63.4627 51.1548C67.256 51.4396 71.0663 51.571 74.8703 51.4846C77.7279 51.4195 80.7463 51.2512 83.2564 49.7369C88.4019 46.6334 88.4226 38.8877 88.6811 33.6051C88.9546 28.0183 89.605 19.7387 84.7982 15.7118C82.3294 13.6436 78.9579 13.1585 75.8938 12.6427C71.9264 11.9748 67.9365 11.4402 63.9428 10.9538C54.5977 9.81458 45.2239 8.9451 35.9389 7.35639C33.9689 7.019 33.1227 10.0349 35.107 10.3742C46.9403 12.3992 58.9207 13.2536 70.7922 14.9932C76.0691 15.7663 83.3866 15.8038 85.0048 22.0304C86.4564 27.6171 85.7954 34.499 84.9303 40.1371C84.5172 42.8288 83.9187 45.8848 81.2752 47.2794C78.6994 48.6384 75.2828 48.3817 72.4641 48.378C66.6539 48.3699 60.8518 47.9066 55.0916 47.1623C48.8507 46.3561 42.6568 45.2075 36.4885 43.9749C33.7311 43.4241 30.9618 42.8964 28.2182 42.2798C24.4442 41.4316 22.9913 39.7046 22.7391 35.8367C22.3522 29.905 22.4054 23.1114 24.0805 17.3713C24.8548 14.719 26.1174 12.1519 28.7384 10.957C31.1602 9.85214 34.3796 9.46213 36.8253 10.6696C38.6255 11.5579 40.213 8.85933 38.4052 7.9667Z" fill="white"/>
<path d="M25.7257 42.4862C20.882 43.8471 18.8363 48.5575 17.7509 53.0851C15.9975 60.3977 14.7506 67.93 13.6376 75.3633C12.5222 82.8167 11.736 90.3484 11.7873 97.8932C11.8061 100.664 11.8167 103.749 13.6727 106.005C15.4736 108.194 18.487 109.317 21.108 110.155C28.4049 112.489 36.4292 113.224 43.9902 114.302C51.3673 115.355 58.8313 116.486 66.2728 116.944C71.4051 117.26 76.9437 116.355 79.3268 111.223C80.6451 108.386 81.1321 105.014 81.718 101.968C82.4604 98.106 83.01 94.2056 83.4281 90.2952C84.3652 81.5223 84.578 72.693 84.6481 63.8762C84.6844 59.2979 86.1617 47.4977 78.2476 48.5162C76.2777 48.7697 76.252 51.9027 78.2476 51.646C82.3715 51.1152 81.5515 57.7442 81.5402 60.2663C81.5264 63.2759 81.5057 66.2849 81.4532 69.294C81.3449 75.5061 81.107 81.7194 80.5361 87.9071C79.9621 94.1305 79.0419 100.334 77.5565 106.409C76.8085 109.468 75.8119 112.249 72.5738 113.331C70.3128 114.086 67.7664 113.939 65.4246 113.75C53.0749 112.751 40.6882 110.901 28.505 108.669C25.6312 108.143 22.7442 107.555 20.0369 106.43C16.1797 104.826 14.9785 102.667 14.924 98.4941C14.8458 92.4955 15.309 86.4912 16.0557 80.5426C16.9377 73.5155 18.2492 66.5484 19.6144 59.6021C20.5233 54.9768 21.076 47.0445 26.5583 45.5046C28.4937 44.9607 27.6713 41.9397 25.7257 42.4862Z" fill="white"/>
<path d="M34.3841 9.74619C32.6746 23.1494 30.9657 36.5527 29.2562 49.9553C27.5491 63.3416 25.4716 76.738 24.1283 90.1644C23.8228 93.2203 24.0431 97.6253 27.4546 98.911C31.8164 100.555 34.493 95.9564 35.1334 92.3934C37.4151 79.6963 38.5731 66.6636 39.8263 53.8331C41.2804 38.952 42.3158 24.0339 42.9649 9.09581C43.0525 7.08207 39.922 7.08583 39.835 9.09581C38.8479 31.8097 36.9499 54.4785 34.0955 77.0347C33.7275 79.9435 33.3437 82.8505 32.9431 85.7557C32.5976 88.262 32.5056 91 31.7087 93.4131C31.0033 95.5508 27.931 96.5242 27.3188 93.9896C27.0803 93.0012 27.1066 91.9227 27.1799 90.9136C27.3783 88.1869 27.8584 85.4521 28.2039 82.741C29.6505 71.3997 31.0965 60.059 32.5431 48.7177C34.2001 35.727 35.8564 22.7363 37.5133 9.74558C37.7681 7.75375 34.6357 7.77189 34.3841 9.74619Z" fill="white"/>
<path d="M68.5506 14.9668C65.2198 40.5213 63.0809 66.2255 62.2065 91.9828C62.1508 93.6178 62.1001 95.2535 62.055 96.8885C62.0224 98.0616 61.5798 99.88 62.0168 100.985C62.542 102.313 64.2734 102.868 65.6017 102.863C69.7018 102.846 71.6116 98.9035 72.1406 95.4087C74.0035 83.0991 74.7684 70.5033 75.7706 58.0991C76.9605 43.3676 77.8726 28.6154 78.5267 13.8507C78.6162 11.837 75.4857 11.8413 75.3968 13.8507C74.7427 28.6154 73.8313 43.3676 72.6407 58.0991C72.0617 65.2602 71.4188 72.4157 70.7115 79.5648C70.3478 83.2418 69.9672 86.9169 69.5697 90.59C69.3375 92.7346 68.8048 102.267 64.316 99.2184C64.5745 99.6691 64.8324 100.119 65.0909 100.57C65.7795 71.9393 67.9791 43.3663 71.6805 14.968C71.9402 12.9756 68.8079 12.9944 68.5506 14.9668Z" fill="white"/>
<path d="M45.1844 9.29306C45.1513 8.18134 45.0041 6.78794 45.4185 5.72943C46.3068 3.45904 48.3907 3.51412 50.4808 3.44088C53.4929 3.33509 56.5251 3.46153 59.5266 3.72006C62.3203 3.96105 65.1697 4.28343 67.8301 5.22113C69.8776 5.94288 71.1502 6.38356 71.589 8.6721C71.8932 10.2577 71.8081 12.0373 71.9127 13.6498C72.6976 13.1991 73.4826 12.749 74.2676 12.2984C73.9464 12.1099 73.6253 11.9215 73.3042 11.7331C71.5628 10.7121 69.9859 13.4163 71.7242 14.4354C72.0453 14.6238 72.3665 14.8122 72.6876 15C73.661 15.5709 75.1207 14.8548 75.0425 13.6486C74.799 9.90401 75.4056 5.74195 71.785 3.57736C68.1612 1.41151 63.6411 0.943266 59.5266 0.588342C55.4403 0.235922 49.4585 -0.740584 45.5863 1.02339C42.3407 2.50193 41.9601 6.12755 42.0552 9.29119C42.1153 11.3024 45.2458 11.3112 45.1844 9.29306Z" fill="white"/>
<path d="M48.8132 10.0945C48.9597 8.93705 49.1062 7.78025 49.2526 6.62283C48.7312 7.14426 48.2091 7.66632 47.6877 8.18775C49.7578 7.97304 67.5628 6.18403 66.4017 10.6898C65.8984 12.6415 68.9162 13.474 69.4194 11.5217C71.9315 1.77783 52.2792 4.58217 47.6877 5.05791C46.7613 5.15368 46.2392 5.70453 46.1228 6.62283C45.9763 7.78025 45.8299 8.93705 45.6834 10.0945C45.4311 12.0875 48.5635 12.0694 48.8132 10.0945Z" fill="white"/>
<path d="M38.6745 81.2901C38.3314 84.368 37.989 87.4465 37.646 90.5244C37.5446 91.4364 38.4516 91.9948 39.2109 92.0893C42.3539 92.4818 45.4969 92.8743 48.6399 93.2674C51.3052 93.6004 54.4701 94.5043 57.1437 94.3046C58.4976 94.2032 59.1793 93.6254 59.4842 92.3021C60.1108 89.5817 59.5812 86.1213 59.6006 83.3257C59.6068 82.43 58.8757 81.8284 58.0357 81.7608C52.0789 81.2813 46.2193 79.9536 40.2388 79.7245C38.2244 79.6475 38.2275 82.7774 40.2388 82.8544C46.2174 83.0835 52.0789 84.4112 58.0357 84.8907C57.5142 84.3692 56.9922 83.8472 56.4707 83.3257C56.4563 85.3739 55.9668 88.0674 56.4232 90.0518C56.7399 91.4301 57.0673 90.9701 55.7114 91.0208C54.6291 91.0608 53.2514 90.7134 52.1753 90.5788C47.8537 90.0393 43.532 89.499 39.2103 88.9594C39.7317 89.4809 40.2538 90.0029 40.7752 90.5244C41.1182 87.4465 41.4607 84.368 41.8037 81.2901C42.0272 79.2914 38.8954 79.3077 38.6745 81.2901Z" fill="white"/>
<path d="M83.7935 64.2855C85.4073 64.4714 87.0949 64.5384 88.6886 64.8489C91.0685 65.3127 90.8526 65.5136 90.7574 67.8886C90.6917 69.5255 90.6266 71.1624 90.5609 72.7987C90.5039 74.2228 90.862 77.2268 89.9844 78.4017C90.4351 78.1432 90.8851 77.8847 91.3358 77.6268C88.9402 77.8953 86.2993 77.3958 83.8981 77.2011C81.8906 77.0383 81.9012 80.1688 83.8981 80.3309C86.1691 80.5156 90.5327 81.7913 92.4425 80.2984C94.5602 78.6433 93.6738 73.23 93.7646 70.9577C93.8516 68.7856 94.9314 64.6836 93.1918 62.889C92.4544 62.1278 91.5393 62.0765 90.5239 61.9306C88.293 61.6101 86.032 61.4136 83.7935 61.1557C81.7961 60.9253 81.813 64.057 83.7935 64.2855Z" fill="white"/>
<path d="M89.2527 80.7843C90.2843 87.0946 90.9928 93.8388 90.3206 100.231C89.9719 103.55 88.8765 107.256 85.8581 109.123C83.1758 110.782 79.6265 110.321 76.6156 110.685C74.6407 110.923 74.6169 114.056 76.6156 113.815C80.1016 113.393 83.8493 113.768 87.0399 112.041C89.6802 110.611 91.4868 107.992 92.4601 105.205C93.7834 101.416 93.6927 97.1571 93.5837 93.2022C93.4617 88.7553 92.9872 84.3404 92.2698 79.9524C91.9468 77.9693 88.9303 78.8106 89.2527 80.7843Z" fill="white"/>
<path d="M18.4588 53.5389C16.591 53.3185 14.7224 53.0988 12.8546 52.8785C11.7021 52.7427 10.0928 52.2663 8.94974 52.6438C6.23366 53.5414 6.33256 58.5097 5.91442 60.6586C5.46435 62.9728 3.31417 68.1283 5.14074 70.2353C5.95263 71.1711 7.45118 71.2037 8.59232 71.3721C10.4784 71.6506 12.365 71.9211 14.2504 72.2046C16.221 72.5013 17.0704 69.486 15.0823 69.1868C13.1137 68.8908 10.3425 69.0122 8.5072 68.2185C7.49563 68.3556 7.28531 67.9217 7.87622 66.9183C7.99328 66.3155 8.11097 65.7121 8.22802 65.1093C8.50157 63.7021 8.77509 62.2955 9.04926 60.8884C9.28338 59.6852 9.47744 58.4653 9.75287 57.2703C10.1773 55.4299 10.0965 55.6841 11.9106 55.8975C14.0933 56.1548 16.2761 56.4114 18.4582 56.6693C20.455 56.9041 20.4382 53.7724 18.4588 53.5389Z" fill="white"/>
<path d="M5.14943 70.1473C1.83743 78.1121 -0.948744 86.1251 0.307575 94.8129C0.739493 97.7994 1.89315 100.654 4.26557 102.628C6.91342 104.831 10.4983 105.302 13.6357 106.465C15.5267 107.166 16.343 104.142 14.4676 103.447C11.8072 102.461 8.59538 102.101 6.36255 100.261C3.56322 97.9534 3.24398 94.2545 3.00737 90.863C2.54415 84.2315 5.66271 77.0022 8.16721 70.9792C8.93966 69.1219 5.91249 68.3113 5.14943 70.1473Z" fill="white"/>
</svg>
